<svg xmlns="http://www.w3.org/2000/svg" viewBox="0 0 50 40">
  <g fill-rule="evenodd" clip-rule="evenodd">
    <path d="M29.769 76.43c13.562 0 24.623 8.957 24.623 19.939 0 2.688-.665 5.252-1.863 7.594-5.356-2.07-16.396-3.48-20.84-4.66-.038-.01 14.296-2.881 14.449-9.054.128-5.199-7.091-6.344-15.766-6.121-4.504.116-17.625 1.775-22.491 3.126 4.098-6.42 12.377-10.824 21.888-10.824zm16.875 34.435c-4.413 3.371-10.354 5.443-16.875 5.443-13.562 0-24.623-8.957-24.623-19.939 0-.681.043-1.356.126-2.021 10.125-4.516 25.601-5.822 28.253-5.862 3.168-.048 6.196.097 6.04 1.878-.292 3.32-11.63 6.478-18.653 9.345 4.824 2.729 19.468 6.834 25.732 11.156z" fill="#81b151" transform="translate(-10, -73) scale(0.85)"/>
  </g>
</svg> 