<svg xmlns="http://www.w3.org/2000/svg" viewBox="0 0 45 30">
  <path d="M15.769 2.43c11.562 0 21.623 6.957 21.623 16.939 0 2.688-.665 5.252-1.863 7.594-5.356-2.07-13.396-3.48-17.84-4.66-.038-.01 11.296-2.881 11.449-9.054.128-5.199-5.091-5.344-13.766-5.121-4.504.116-14.625 1.775-19.491 3.126 4.098-6.42 10.377-8.824 19.888-8.824z" fill="#81b151"/>
  <path d="M31.644 29.865c-4.413 3.371-9.354 4.443-15.875 4.443-11.562 0-21.623-7.957-21.623-17.939 0-.681.043-1.356.126-2.021 8.125-3.516 22.601-4.822 25.253-4.862 3.168-.048 5.196.097 5.04 1.878-.292 3.32-9.63 5.478-16.653 8.345 4.824 2.729 16.468 5.834 23.732 10.156z" fill="#81b151"/>
</svg> 